<svg width="104" height="81" viewBox="0 0 104 81" fill="none" xmlns="http://www.w3.org/2000/svg">
<path d="M104 64.23H102.37V59.09V49.57V47.3L93.76 42.99L93.63 42.8L91.94 40.23L91.66 39.8L82.12 25.23L80.83 23.26H91.49L91.36 21.64C90.43 10.09 74.3 0.700012 55.4 0.700012H0V20.25V23.25V51.33V62.22V64.24V67.24V73.76H15.72C17.55 77.7 21.53 80.28 25.93 80.28C30.34 80.28 34.31 77.7 36.14 73.76H69.47C71.3 77.7 75.28 80.28 79.68 80.28C84.09 80.28 88.06 77.7 89.89 73.76H104V64.23ZM99.37 56.09H97.48V52.57H99.37V56.09ZM88.09 39.8H71.42V28.14H80.45L88.09 39.8ZM78.49 25.14H68.42V42.8H90.05L91.69 45.31L99.37 49.15V49.57H94.48V59.09H99.37V64.23H89.91C89.85 64.1 89.78 63.97 89.71 63.85C89.66 63.76 89.62 63.66 89.57 63.57C89.47 63.39 89.37 63.22 89.26 63.05C89.22 62.98 89.18 62.91 89.14 62.84C88.99 62.61 88.83 62.38 88.66 62.16C88.64 62.14 88.63 62.12 88.61 62.1C88.46 61.9 88.3 61.71 88.13 61.52C88.07 61.45 88 61.38 87.94 61.32C87.82 61.19 87.69 61.05 87.56 60.93C87.48 60.85 87.4 60.78 87.32 60.71C87.2 60.6 87.08 60.49 86.95 60.38C86.86 60.3 86.77 60.23 86.68 60.16C86.56 60.06 86.43 59.96 86.3 59.87C86.2 59.8 86.1 59.73 86 59.66C85.87 59.57 85.74 59.49 85.61 59.41C85.51 59.35 85.4 59.28 85.29 59.22C85.16 59.14 85.02 59.07 84.89 59C84.78 58.94 84.67 58.89 84.56 58.83C84.42 58.76 84.28 58.7 84.14 58.64C84.03 58.59 83.91 58.54 83.8 58.5C83.66 58.44 83.51 58.39 83.36 58.34C83.25 58.3 83.13 58.26 83.01 58.22C82.86 58.17 82.7 58.13 82.55 58.09C82.44 58.06 82.32 58.03 82.21 58C82.05 57.96 81.88 57.93 81.71 57.9C81.6 57.88 81.49 57.86 81.38 57.84C81.19 57.81 81.01 57.79 80.82 57.77C80.73 57.76 80.63 57.75 80.54 57.74C80.26 57.72 79.97 57.71 79.68 57.71C79.39 57.71 79.11 57.72 78.82 57.74C78.73 57.75 78.63 57.76 78.54 57.77C78.35 57.79 78.16 57.81 77.98 57.84C77.87 57.86 77.76 57.88 77.65 57.9C77.48 57.93 77.32 57.96 77.15 58C77.03 58.03 76.92 58.06 76.8 58.09C76.65 58.13 76.49 58.17 76.34 58.22C76.22 58.26 76.1 58.3 75.99 58.34C75.85 58.39 75.7 58.44 75.56 58.5C75.44 58.55 75.33 58.6 75.21 58.65C75.07 58.71 74.94 58.77 74.8 58.83C74.68 58.89 74.57 58.94 74.45 59C74.32 59.07 74.19 59.14 74.07 59.21C73.96 59.28 73.84 59.34 73.73 59.41C73.61 59.49 73.49 59.56 73.37 59.64C73.26 59.71 73.15 59.79 73.04 59.87C72.93 59.95 72.82 60.04 72.7 60.13C72.59 60.21 72.49 60.3 72.38 60.38C72.27 60.47 72.17 60.56 72.07 60.66C71.97 60.75 71.87 60.84 71.77 60.94C71.67 61.04 71.58 61.14 71.48 61.24C71.39 61.34 71.29 61.44 71.2 61.54C71.1 61.65 71.01 61.77 70.92 61.88C70.78 62.05 70.65 62.22 70.52 62.4C70.42 62.54 70.31 62.69 70.21 62.84C70.14 62.94 70.08 63.05 70.02 63.16C69.94 63.29 69.86 63.43 69.78 63.56C69.72 63.67 69.67 63.78 69.61 63.89C69.55 64.01 69.49 64.12 69.43 64.24H66.49V23.25H77.21L78.49 25.14ZM3 3.70001H55.4C71.53 3.70001 85.9 11.12 88.11 20.25H78.87H3V3.70001ZM3 54.33H5.07V59.22H3V54.33ZM3 62.22H8.07V51.33H3V23.25H63.53V64.23H61.64V25.13H42.35V64.23H36.15C36.09 64.1 36.02 63.97 35.95 63.85C35.9 63.76 35.86 63.66 35.81 63.57C35.71 63.39 35.61 63.22 35.5 63.05C35.46 62.98 35.42 62.91 35.38 62.84C35.23 62.61 35.07 62.38 34.9 62.16C34.88 62.14 34.87 62.12 34.85 62.1C34.7 61.9 34.54 61.71 34.37 61.52C34.31 61.45 34.24 61.38 34.18 61.32C34.06 61.19 33.93 61.05 33.8 60.93C33.72 60.85 33.64 60.78 33.56 60.71C33.44 60.6 33.32 60.49 33.19 60.38C33.1 60.3 33.01 60.23 32.92 60.16C32.8 60.06 32.67 59.96 32.54 59.87C32.44 59.8 32.34 59.73 32.24 59.66C32.11 59.57 31.98 59.49 31.85 59.41C31.75 59.35 31.64 59.28 31.53 59.22C31.4 59.14 31.26 59.07 31.13 59C31.02 58.94 30.91 58.89 30.8 58.83C30.66 58.76 30.52 58.7 30.38 58.64C30.27 58.59 30.15 58.54 30.04 58.5C29.9 58.44 29.75 58.39 29.6 58.34C29.48 58.3 29.37 58.26 29.25 58.22C29.1 58.17 28.94 58.13 28.79 58.09C28.68 58.06 28.56 58.03 28.45 58C28.29 57.96 28.12 57.93 27.95 57.9C27.84 57.88 27.73 57.86 27.62 57.84C27.43 57.81 27.25 57.79 27.06 57.77C26.97 57.76 26.87 57.75 26.78 57.74C26.5 57.72 26.21 57.71 25.92 57.71C25.63 57.71 25.35 57.72 25.06 57.74C24.97 57.75 24.87 57.76 24.78 57.77C24.59 57.79 24.4 57.81 24.22 57.84C24.11 57.86 24 57.88 23.89 57.9C23.72 57.93 23.56 57.96 23.39 58C23.27 58.03 23.16 58.06 23.04 58.09C22.89 58.13 22.73 58.17 22.58 58.22C22.46 58.26 22.34 58.3 22.23 58.34C22.09 58.39 21.94 58.44 21.8 58.5C21.68 58.55 21.57 58.6 21.45 58.65C21.31 58.71 21.18 58.77 21.04 58.83C20.92 58.89 20.81 58.94 20.69 59C20.56 59.07 20.43 59.14 20.31 59.21C20.2 59.28 20.08 59.34 19.97 59.41C19.85 59.49 19.73 59.56 19.61 59.64C19.5 59.71 19.39 59.79 19.28 59.87C19.17 59.95 19.06 60.04 18.95 60.12C18.84 60.2 18.74 60.29 18.63 60.37C18.52 60.46 18.42 60.55 18.32 60.65C18.22 60.74 18.12 60.83 18.02 60.93C17.92 61.02 17.83 61.13 17.74 61.22C17.64 61.32 17.54 61.42 17.45 61.53C17.36 61.63 17.28 61.74 17.19 61.84C17.02 62.04 16.86 62.26 16.71 62.47C16.63 62.59 16.54 62.7 16.46 62.82C16.39 62.93 16.32 63.05 16.25 63.17C16.18 63.29 16.1 63.41 16.03 63.54C15.97 63.66 15.91 63.78 15.85 63.89C15.79 64 15.74 64.1 15.68 64.22H3V62.22ZM58.64 64.23H45.35V28.13H58.64V64.23V64.23ZM3 70.75V67.23H14.8C14.77 67.4 14.76 67.58 14.74 67.76C14.73 67.86 14.71 67.96 14.7 68.06C14.67 68.37 14.66 68.68 14.66 68.99C14.66 69.3 14.67 69.61 14.7 69.92C14.71 70.03 14.73 70.13 14.74 70.23C14.76 70.4 14.77 70.58 14.8 70.75H3V70.75ZM25.94 77.27C22.44 77.27 19.31 75.05 18.14 71.75C17.83 70.88 17.67 69.95 17.67 69C17.67 68.05 17.83 67.13 18.15 66.24V66.23C19.32 62.93 22.45 60.72 25.95 60.72C26.59 60.72 27.22 60.82 27.83 60.96C28.05 61.01 28.27 61.05 28.48 61.12H28.49C30.9 61.9 32.87 63.76 33.75 66.24V66.25C34.06 67.12 34.22 68.04 34.22 68.99C34.22 69.94 34.06 70.87 33.74 71.75C32.57 75.05 29.44 77.27 25.94 77.27ZM37.07 70.75C37.1 70.57 37.11 70.4 37.13 70.22C37.14 70.12 37.16 70.02 37.17 69.92C37.2 69.61 37.21 69.3 37.21 68.99C37.21 68.68 37.2 68.37 37.17 68.06C37.16 67.96 37.15 67.85 37.13 67.75C37.11 67.58 37.1 67.4 37.07 67.23H42.35H61.64H68.55C68.52 67.4 68.51 67.58 68.49 67.75C68.48 67.85 68.46 67.96 68.45 68.06C68.42 68.37 68.41 68.68 68.41 68.99C68.41 69.3 68.42 69.61 68.45 69.92C68.46 70.03 68.48 70.14 68.49 70.25C68.51 70.42 68.52 70.59 68.55 70.75H37.07ZM79.69 77.27C76.19 77.27 73.06 75.05 71.89 71.75C71.58 70.88 71.42 69.95 71.42 69C71.42 68.05 71.58 67.12 71.9 66.24C72.05 65.83 72.22 65.43 72.43 65.06C73.86 62.43 76.64 60.73 79.7 60.73C80.14 60.73 80.57 60.76 80.99 60.83C83.95 61.3 86.47 63.36 87.5 66.25V66.26C87.81 67.13 87.97 68.05 87.97 69C87.97 69.95 87.81 70.88 87.49 71.76C86.33 75.05 83.19 77.27 79.69 77.27ZM101 70.75H90.83C90.86 70.58 90.87 70.41 90.89 70.24C90.9 70.13 90.92 70.03 90.93 69.92C90.96 69.61 90.97 69.3 90.97 68.99C90.97 68.68 90.96 68.37 90.93 68.06C90.92 67.95 90.9 67.85 90.89 67.74C90.87 67.57 90.86 67.4 90.83 67.23H101V70.75Z" fill="#222221"/>
<path d="M79.69 62.2C75.94 62.2 72.9 65.25 72.9 68.99C72.9 72.74 75.95 75.78 79.69 75.78C83.44 75.78 86.48 72.73 86.48 68.99C86.49 65.25 83.44 62.2 79.69 62.2ZM79.69 72.79C77.6 72.79 75.9 71.09 75.9 69C75.9 66.91 77.6 65.21 79.69 65.21C81.78 65.21 83.48 66.91 83.48 69C83.49 71.08 81.79 72.79 79.69 72.79Z" fill="#222221"/>
<path d="M25.94 62.2C22.19 62.2 19.15 65.25 19.15 68.99C19.15 72.74 22.2 75.78 25.94 75.78C29.68 75.78 32.73 72.73 32.73 68.99C32.73 65.25 29.68 62.2 25.94 62.2ZM25.94 72.79C23.85 72.79 22.15 71.09 22.15 69C22.15 66.91 23.85 65.21 25.94 65.21C28.03 65.21 29.73 66.91 29.73 69C29.73 71.08 28.03 72.79 25.94 72.79Z" fill="#222221"/>
<path d="M76.72 46.31H68.83V49.31H76.72V46.31Z" fill="#222221"/>
</svg>
