<svg width="179" height="55" viewBox="0 0 179 55" fill="none" xmlns="http://www.w3.org/2000/svg">
<path d="M0 35.5819H25.3598C25.3237 35.5819 25.2876 35.5819 25.2876 35.5462C24.3483 35.0813 23.373 34.6879 22.3615 34.4018C21.3499 34.08 20.3384 33.8654 19.2908 33.7224C17.1594 33.472 14.9558 33.5436 12.7522 33.9369C14.6668 32.7211 17.0149 32.1489 19.3631 32.1131C21.7112 32.0416 24.0955 32.6495 26.2268 33.6508L27.6718 34.3303C28.1776 34.5091 28.6472 34.7237 29.153 34.8309C30.1284 35.1886 31.176 35.3316 32.2236 35.4746C34.3189 35.6892 36.4864 35.5462 38.69 34.9382C38.401 35.1886 38.0759 35.3674 37.7508 35.5819H47.5045V1.0013H31.4289L0 35.5819ZM34.1744 33.5078C33.0906 33.5436 32.0069 33.4363 30.9592 33.1502C30.4174 33.0429 29.9477 32.8284 29.4059 32.6853L27.9608 32.0416C26.263 31.1834 24.4206 30.6112 22.506 30.3966C20.5913 30.1821 18.6044 30.2178 16.5814 30.6112C18.3516 29.5026 20.4829 29.002 22.5782 28.9662C24.7096 28.8947 26.841 29.4668 28.7917 30.3966L30.0922 31.0046C30.5619 31.1476 30.9954 31.3622 31.4289 31.4694C32.332 31.7913 33.2712 31.9343 34.2105 32.0416C36.1251 32.2204 38.0759 32.0774 40.0628 31.5052C38.4371 32.7926 36.3058 33.4363 34.1744 33.5078ZM41.1465 15.5559L37.3895 25.6762H31.1399C31.1399 25.6762 35.8722 14.2328 41.1465 6.72302V15.5559ZM31.2482 22.2789C30.5619 23.7094 28.864 27.7503 28.864 27.7503L22.1086 27.6788C22.1086 27.6788 24.1316 23.7451 30.02 17.5943C32.9461 14.5546 36.2335 12.5878 36.2335 12.5878C36.2335 12.5878 32.3681 19.9187 31.2482 22.2789ZM131.279 18.0592C131.279 5.68596 141.394 0 153.929 0C165.056 0 174.376 3.68335 175.929 14.3043H165.453C164.767 12.6593 162.202 11.658 159.492 11.4792C158.409 13.0169 157.506 14.9122 157.108 15.9135L156.241 15.5559C156.386 15.1625 157.325 12.9811 158.625 11.0858C158.806 10.3706 159.095 8.97594 159.167 8.51105C159.384 6.6515 159.167 4.68466 157.361 4.54161C154.363 4.29129 147.824 5.18531 147.643 12.0156C147.643 12.1229 147.571 13.0884 147.571 13.5891C149.992 15.0553 152.231 15.9135 152.267 15.9135L151.906 16.8075C151.726 16.736 148.763 15.6274 145.909 13.6606C143.381 13.2315 140.96 13.4103 140.057 15.1983C138.251 18.8459 141.683 24.961 148.438 25.1398C148.655 25.1756 148.98 25.2471 149.233 25.2828C150.714 23.0299 151.4 20.6339 151.4 20.5982L152.304 20.8485C152.267 20.9915 151.545 23.5306 149.919 25.9265C149.919 26.8205 149.847 28.5013 149.811 28.9662C149.739 30.0748 150.028 31.0403 150.895 31.7198C154.507 34.4376 159.203 30.2893 161.01 27.4642C162.021 25.855 161.335 24.1743 159.854 22.7081C159.89 22.6723 159.89 22.6008 159.926 22.565C157.939 21.4922 156.241 20.777 156.205 20.7412L156.566 19.883C156.747 19.9545 160.576 21.6352 163.611 23.6378H175.676C173.364 33.9012 164.369 36.619 153.604 36.619C141.394 36.5832 131.026 30.6469 131.279 18.0592ZM175.893 35.5819H176.291L176.905 36.762H177.519L176.905 35.5819C177.121 35.5819 177.519 35.3674 177.519 34.974C177.519 34.3661 177.121 34.1873 176.327 34.1873H175.315V36.762H175.929V35.5819H175.893ZM175.893 34.5806H176.291C176.507 34.5806 176.905 34.5806 176.905 34.7952C176.905 35.1886 176.688 35.1886 176.507 35.1886H175.893V34.5806ZM106.714 26.2126L91.7217 1.0013H107.219L113.686 15.0553L121.272 1.0013H135.722L120.73 26.2126V35.6177H106.75V26.2126H106.714ZM88.8678 17.0579C91.6133 15.5917 93.3473 12.8381 93.3473 9.6554C93.3473 4.97074 89.3374 1.0013 84.3522 1.0013H51.6589V35.6177H83.1239C89.3736 35.6177 94.3588 30.933 94.3588 25.712C94.3588 21.9928 92.1191 18.7744 88.8678 17.0579ZM64.4111 9.15475H76.1518C77.4161 9.15475 78.6444 10.156 78.6444 11.6222C78.6444 12.8739 77.38 14.0897 76.1518 14.0897H64.4111V9.15475ZM76.6575 26.7133H64.4111V21.7425H76.6575C78.1386 21.7425 79.403 22.7438 79.403 24.21C79.403 25.4616 78.1386 26.7133 76.6575 26.7133ZM173.545 35.3674C173.545 36.9408 174.846 37.9421 176.146 37.9421C177.663 37.9421 179 36.9408 179 35.3674C179 33.9727 177.699 33.0071 176.146 33.0071C174.882 33.0071 173.545 34.0085 173.545 35.3674ZM176.291 33.5793C177.41 33.5793 178.314 34.3661 178.314 35.3674C178.314 36.5475 177.41 37.3342 176.291 37.3342C175.171 37.3342 174.268 36.5475 174.268 35.3674C174.231 34.4018 175.135 33.5793 176.291 33.5793ZM102.162 43.9499C100.536 43.9499 100.139 44.2718 99.9582 45.7022L99.7776 47.0611H101.475L101.656 45.6665C101.692 45.3804 101.764 45.2016 101.981 45.2016C102.198 45.2016 102.234 45.3446 102.198 45.6665L101.981 47.3472L100.464 48.1339C99.7776 48.4915 99.5609 48.8492 99.4525 49.5286L99.2357 51.0663C99.0551 52.3537 99.1273 53.1047 100.175 53.1047C100.572 53.1047 102.92 53.0332 102.92 53.0332L103.896 45.6665C104.113 44.2718 103.715 43.9499 102.162 43.9499ZM101.475 51.3882C101.439 51.6743 101.403 51.8531 101.15 51.8531C100.934 51.8531 100.897 51.71 100.934 51.3882L101.15 49.5286C101.186 49.314 101.295 49.171 101.475 49.0637L101.764 48.8849L101.475 51.3882ZM109.604 51.0663C109.387 52.7828 109.134 53.1047 107.328 53.1047C105.558 53.1047 105.449 52.7113 105.666 51.0663L105.847 49.7432H107.545L107.328 51.4239C107.292 51.71 107.328 51.8531 107.545 51.8531C107.761 51.8531 107.834 51.71 107.87 51.4239L108.086 49.8147C108.123 49.4928 108.122 49.3498 107.653 49.0637L106.894 48.6346C106.063 48.1697 106.099 47.7763 106.208 46.9896L106.352 45.8095C106.569 44.2003 107.003 43.9142 108.664 43.9142C110.362 43.9142 110.507 44.3075 110.29 45.9525L110.146 46.9896H108.448L108.628 45.5949C108.664 45.3088 108.628 45.1658 108.412 45.1658C108.195 45.1658 108.123 45.3446 108.086 45.5949L107.942 46.8108C107.87 47.3472 108.014 47.3472 108.52 47.6333L109.315 48.0982C109.965 48.4915 109.929 48.9207 109.857 49.6001L109.604 51.0663ZM121.417 45.9525L120.477 53.0689H118.816L119.791 45.738C119.827 45.4519 119.791 45.3088 119.574 45.3088C119.357 45.3088 119.285 45.4519 119.249 45.738L118.274 53.0689H116.612L117.587 45.738C117.623 45.4519 117.587 45.3088 117.371 45.3088C117.154 45.3088 117.082 45.4519 117.045 45.738L116.07 53.0689H114.408L115.6 44.0215H117.262L117.19 44.4506C117.551 44.093 117.912 43.9499 118.31 43.9499C118.671 43.9499 118.996 44.1287 119.249 44.4863C119.61 44.1287 120.008 43.9499 120.441 43.9499C121.489 43.9499 121.597 44.7009 121.417 45.9525ZM125.029 43.9499C124.704 43.9499 124.343 44.093 124.018 44.3791L124.343 41.9473H122.645L121.2 53.0689H122.898L122.934 52.6755C123.187 52.9616 123.512 53.1047 123.873 53.1047C124.921 53.1047 125.21 52.2822 125.39 50.959L126.041 46.0598C126.185 44.7724 126.149 43.9499 125.029 43.9499ZM124.379 45.7737L123.656 51.3166C123.62 51.6027 123.548 51.7458 123.331 51.7458C123.114 51.7458 123.078 51.6027 123.114 51.3166L123.837 45.7737C123.873 45.4876 123.945 45.3446 124.162 45.3446C124.379 45.3088 124.415 45.4876 124.379 45.7737ZM128.931 43.9499C127.305 43.9499 126.908 44.2718 126.727 45.7022L125.968 51.3882C125.788 52.8186 126.149 53.1404 127.666 53.1404C129.292 53.1404 129.725 52.8544 129.906 51.3882L130.665 45.7022C130.845 44.2718 130.484 43.9499 128.931 43.9499ZM128.967 45.6665L128.208 51.3882C128.172 51.6743 128.136 51.8531 127.883 51.8531C127.666 51.8531 127.63 51.6743 127.666 51.3882L128.425 45.6665C128.461 45.3804 128.533 45.2016 128.786 45.2016C128.967 45.2373 129.003 45.4161 128.967 45.6665ZM131.929 41.9473H133.627L132.182 53.0689H130.484L131.929 41.9473ZM137.203 43.9499C135.578 43.9499 135.18 44.2718 135 45.7022L134.241 51.3882C134.06 52.8186 134.422 53.1404 135.939 53.1404C137.564 53.1404 137.998 52.8544 138.179 51.3882L138.937 45.7022C139.154 44.2718 138.757 43.9499 137.203 43.9499ZM137.275 45.6665L136.517 51.3882C136.481 51.6743 136.445 51.8531 136.192 51.8531C135.975 51.8531 135.939 51.6743 135.975 51.3882L136.734 45.6665C136.77 45.3804 136.842 45.2016 137.095 45.2016C137.275 45.2373 137.312 45.4161 137.275 45.6665ZM141.863 41.9116H142.73L142.55 43.1632H142.08C141.863 43.1632 141.755 43.3062 141.719 43.5923L141.647 44.0215H142.405L142.225 45.2731H141.466L140.454 53.0689H138.757L139.768 45.2731H139.335L139.515 44.0215H139.949L140.021 43.5923C140.165 42.4122 140.527 41.9116 141.863 41.9116ZM145.801 49.171H147.499L147.21 51.3882C147.029 52.8544 146.596 53.1404 144.97 53.1404C143.417 53.1404 143.055 52.8544 143.272 51.3882L144.031 45.7022C144.212 44.2718 144.609 43.9499 146.235 43.9499C147.788 43.9499 148.185 44.236 148.005 45.7022L147.752 47.7048H146.054L146.307 45.6665C146.343 45.3804 146.307 45.2016 146.09 45.2016C145.837 45.2016 145.801 45.3804 145.765 45.6665L145.006 51.3882C144.97 51.71 145.006 51.8531 145.223 51.8531C145.476 51.8531 145.512 51.6743 145.548 51.3882L145.801 49.171ZM149.739 48.8134H151.978L152.376 45.7022C152.556 44.236 152.195 43.9499 150.606 43.9499C148.98 43.9499 148.583 44.2718 148.402 45.7022L147.643 51.3882C147.463 52.8186 147.824 53.1404 149.341 53.1404C150.967 53.1404 151.4 52.8544 151.581 51.3882L151.798 49.7074H150.1L149.883 51.3882C149.847 51.6743 149.811 51.8531 149.558 51.8531C149.341 51.8531 149.305 51.71 149.341 51.3882L149.739 48.8134ZM150.172 45.6665C150.208 45.3804 150.281 45.2016 150.533 45.2016C150.75 45.2016 150.75 45.3804 150.714 45.6665L150.461 47.526H149.919L150.172 45.6665ZM156.783 46.0598L156.566 47.669H154.941L155.194 45.738C155.23 45.4519 155.194 45.3088 154.977 45.3088C154.76 45.3088 154.688 45.4519 154.652 45.738L153.676 53.0689H151.978L153.171 44.0215H154.868L154.832 44.3791C155.157 44.093 155.555 43.9499 155.844 43.9499C156.891 43.9499 156.964 44.7367 156.783 46.0598ZM158.517 51.4239C158.481 51.71 158.589 51.8531 158.951 51.8531H159.167L158.987 53.1047H158.3C156.747 53.1047 156.711 52.5683 156.891 51.2451L157.686 45.2731H157.253L157.433 44.0215H157.867L158.192 41.4824H159.89L159.565 44.0215H160.251L160.07 45.2731H159.384L158.517 51.4239ZM162.563 43.9499C160.937 43.9499 160.54 44.2718 160.359 45.7022L160.179 47.0611H161.877L162.057 45.6665C162.093 45.3804 162.166 45.2016 162.382 45.2016C162.599 45.2016 162.635 45.3446 162.599 45.6665L162.382 47.3472L160.865 48.1339C160.179 48.4915 159.962 48.8492 159.854 49.5286L159.637 51.0663C159.456 52.3537 159.529 53.1047 160.576 53.1047C160.974 53.1047 163.322 53.0332 163.322 53.0332L164.297 45.6665C164.478 44.2718 164.116 43.9499 162.563 43.9499ZM161.841 51.3882C161.804 51.6743 161.768 51.8531 161.515 51.8531C161.299 51.8531 161.263 51.71 161.299 51.3882L161.552 49.4928C161.588 49.2783 161.696 49.1352 161.877 49.028L162.166 48.8492L161.841 51.3882ZM166.826 44.0215L165.634 53.0689H163.936L165.128 44.0215H166.826ZM165.236 43.2705L165.417 41.9831H167.115L166.934 43.2705H165.236ZM171.233 46.0598L170.33 53.0332H168.632L169.607 45.7022C169.644 45.4161 169.607 45.2731 169.391 45.2731C169.174 45.2731 169.102 45.4161 169.066 45.7022L168.09 53.0332H166.392L167.584 43.9857H169.282L169.246 44.3433C169.571 44.0572 169.933 43.9142 170.258 43.9142C171.378 43.9499 171.414 44.7724 171.233 46.0598ZM173.292 53.0689H172.606C171.052 53.0689 171.016 52.5325 171.197 51.2094L171.992 45.2373H171.558L171.739 43.9857H172.172L172.497 41.4109H174.195L173.87 43.9857H174.557L174.376 45.2373H173.69L172.895 51.3882C172.859 51.6743 172.931 51.8173 173.292 51.8173H173.509L173.292 53.0689ZM177.049 43.9499H178.747L177.483 53.5338C177.483 53.5338 177.374 54.249 177.194 54.6066C177.049 54.857 176.905 55 176.905 55C176.905 55 174.051 55 173.545 55C173.003 55 173.003 54.1775 173.003 54.1775V53.498H174.809V53.8199C174.809 53.8199 174.773 54.249 175.243 54.2848C175.749 54.3205 175.785 53.7126 175.785 53.7126L175.929 52.5683C175.604 52.8544 175.243 52.9974 174.918 52.9974C173.798 52.9974 173.762 52.1749 173.942 50.8875L174.846 43.9142H176.543L175.568 51.2451C175.532 51.5312 175.568 51.6743 175.785 51.6743C176.002 51.6743 176.074 51.5312 176.11 51.2451L177.049 43.9499ZM115.022 43.9499L113.758 53.5338C113.758 53.5338 113.65 54.249 113.469 54.6066C113.325 54.857 113.18 55 113.18 55C113.18 55 110.326 55 109.82 55C109.279 55 109.279 54.1775 109.279 54.1775V53.498H111.085V53.8199C111.085 53.8199 111.049 54.249 111.518 54.2848C112.024 54.3205 112.06 53.7126 112.06 53.7126L112.205 52.5683C111.88 52.8544 111.518 52.9974 111.193 52.9974C110.073 52.9974 110.037 52.1749 110.218 50.8875L111.121 43.9142H112.819L111.843 51.2451C111.807 51.5312 111.843 51.6743 112.06 51.6743C112.277 51.6743 112.349 51.5312 112.385 51.2451L113.361 43.9142H115.022V43.9499Z" fill="#222221"/>
</svg>
