<svg width="68" height="65" viewBox="0 0 68 65" fill="none" xmlns="http://www.w3.org/2000/svg">
<rect width="68" height="65" fill="#E5E5E5"/>
<g clip-path="url(#clip0_233_2)">
<rect width="1920" height="6573" transform="translate(-1308 -1729)" fill="white"/>
<rect x="-1308" y="-649" width="1920" height="1080" fill="white"/>
<rect x="-984" y="-40" width="1596" height="144" fill="#ECFF00"/>
<g clip-path="url(#clip1_233_2)">
<path d="M7.73867 4.13043C5.73235 4.13043 4.12013 5.76087 4.12013 7.78986V57.1739C4.12013 59.2029 5.73235 60.8333 7.73867 60.8333H60.2972C62.3035 60.8333 63.9157 59.2029 63.9157 57.1739V7.82609C63.9157 5.7971 62.3035 4.16667 60.2972 4.16667H7.73867V4.13043ZM60.2613 65H7.73867C3.47524 65 0 61.4855 0 57.1739V7.82609C0 3.51449 3.47524 0 7.73867 0H60.2972C64.5606 0 68.0358 3.51449 68.0358 7.82609V57.2101C68 61.4855 64.5248 65 60.2613 65Z" fill="#222221"/>
<path d="M37.5828 46.884L37.1529 43.1521C37.117 42.8623 36.7588 42.826 36.6513 43.0796L35.1107 46.8478C35.039 47.0289 35.1824 47.2101 35.3615 47.2101H37.332C37.4753 47.2101 37.6186 47.0652 37.5828 46.884ZM27.1571 32.6449L25.9748 38.3695C25.9389 38.4782 25.8315 38.5869 25.724 38.5869H18.881C18.7377 38.5869 18.6302 38.6956 18.6302 38.8043L18.3436 40.7246C18.3078 40.8695 18.4511 41.0507 18.5944 41.0507H24.4342C24.6133 41.0507 24.7208 41.1956 24.685 41.3767L23.7177 46.7753C23.6818 46.9202 23.5744 46.9927 23.4669 46.9927H17.4479C17.3046 46.9927 17.1971 47.1014 17.1971 47.2101L16.8388 49.2028C16.803 49.384 16.9463 49.5289 17.0896 49.5289H23.7177C23.8968 49.5289 24.0043 49.6738 23.9684 49.8188L23.431 53.297C23.431 53.4057 23.5385 53.442 23.6102 53.3695L34.2509 32.7898C34.3583 32.6086 34.215 32.3912 34.0001 32.3912H27.4079C27.2645 32.4275 27.1571 32.4999 27.1571 32.6449ZM21.3172 32.4275C21.4964 32.4275 21.6397 32.2463 21.568 32.0652L17.8062 22.4999C17.7345 22.3188 17.4479 22.3188 17.4121 22.5362L15.6207 32.1014C15.5849 32.2825 15.7282 32.4275 15.9073 32.4275H21.3172ZM41.4879 32.4275C41.6671 32.4275 41.8104 32.2463 41.8104 32.0652L40.6281 22.826C40.5923 22.6449 40.3415 22.6086 40.2698 22.7898L37.9052 32.0289C37.8694 32.2463 38.0127 32.4275 38.1918 32.4275H41.4879ZM7.38046 32.1014L11.4289 9.16661C11.4648 9.05791 11.5722 8.94922 11.7156 8.94922H19.7767C19.8841 8.94922 19.9916 9.02168 20.0275 9.13038L23.9684 18.5507C24.0401 18.7318 24.2909 18.6956 24.3267 18.5144L26.0823 9.16661C26.0464 9.05791 26.1539 8.94922 26.2972 8.94922H34.0001C34.1792 8.94922 34.2867 9.09415 34.2509 9.27531L31.528 25.4347C31.528 25.5797 31.7429 25.6159 31.7788 25.471L36.508 9.16661C36.5438 9.05791 36.6513 8.98545 36.7588 8.98545H44.7124C44.8557 8.98545 44.9632 9.09415 44.9632 9.20284L46.253 19.6376C46.2888 19.7826 46.4679 19.8188 46.5396 19.6739L51.7703 9.09415C51.8062 8.98545 51.9137 8.94922 52.0211 8.94922H60.0823C60.2256 8.94922 60.3689 9.09415 60.333 9.23907L58.5417 32.1739C58.5417 32.3188 58.3984 32.4275 58.2909 32.4275H50.6239C50.4806 32.4275 50.3373 32.2825 50.3731 32.1376L51.3404 22.7173C51.3404 22.6086 51.1971 22.5362 51.1255 22.6449L46.3246 32.2463C46.2888 32.3188 46.1813 32.3912 46.0738 32.3912H43.8884C43.7092 32.3912 43.6017 32.5362 43.6376 32.6811L46.7904 55.326C46.8262 55.471 46.6829 55.6159 46.5396 55.6159H38.3351C38.1918 55.6159 38.0844 55.5072 38.0844 55.3623L37.9052 52.7898C37.9052 52.6449 37.7977 52.5362 37.6544 52.5362H32.567C32.4595 52.5362 32.3878 52.6086 32.3162 52.6811L30.9906 55.471C30.9547 55.5796 30.8473 55.6159 30.7398 55.6159H7.63125C7.45212 55.6159 7.34463 55.471 7.38046 55.2898L11.5006 32.6449C11.5364 32.4637 11.3931 32.3188 11.2498 32.3188H7.66708C7.48794 32.4275 7.34463 32.2825 7.38046 32.1014Z" fill="#222221"/>
<path d="M51.5551 52.0652C51.4118 51.9927 51.1969 51.9565 50.8744 51.9565H50.4087V53.1159H50.9102C51.161 53.1159 51.3402 53.0797 51.4476 53.0435C51.6626 52.971 51.7701 52.7898 51.7701 52.5362C51.7701 52.3188 51.6984 52.1739 51.5551 52.0652ZM50.9461 51.5579C51.3402 51.5579 51.6268 51.5942 51.8059 51.6666C52.1284 51.8116 52.3075 52.0652 52.3075 52.5C52.3075 52.7898 52.2 53.0072 51.9851 53.1522C51.8776 53.2246 51.7343 53.2608 51.5193 53.2971C51.7701 53.3333 51.9492 53.442 52.0567 53.6232C52.1642 53.8043 52.2358 53.9493 52.2358 54.1304V54.3478C52.2358 54.4203 52.2358 54.4927 52.2358 54.6014C52.2358 54.6739 52.2358 54.7464 52.2717 54.7826L52.3075 54.8188H51.7701V54.7826V54.7464V54.6377V54.384C51.7701 54.0217 51.6626 53.7681 51.4835 53.6594C51.376 53.5869 51.161 53.5507 50.8744 53.5507H50.4445V54.8188H49.8713V51.5942H50.9461V51.5579ZM49.2264 51.413C48.7248 51.9203 48.5098 52.5 48.5098 53.2246C48.5098 53.913 48.7606 54.529 49.2264 55.0362C49.7279 55.5435 50.3012 55.7971 51.0177 55.7971C51.6984 55.7971 52.3075 55.5435 52.7733 55.0362C53.2748 54.529 53.4898 53.9493 53.4898 53.2246C53.4898 52.5362 53.239 51.9203 52.7733 51.413C52.2717 50.9058 51.6984 50.6522 51.0177 50.6522C50.3012 50.6522 49.7279 50.9058 49.2264 51.413ZM53.0599 55.2898C52.4866 55.8695 51.8059 56.1594 50.9819 56.1594C50.1579 56.1594 49.4772 55.8695 48.9397 55.2898C48.3665 54.7101 48.0799 54.0217 48.0799 53.1884C48.0799 52.3913 48.3665 51.6666 48.9397 51.1232C49.513 50.5435 50.1937 50.2536 50.9819 50.2536C51.7701 50.2536 52.4866 50.5435 53.0599 51.1232C53.6331 51.7029 53.9197 52.3913 53.9197 53.1884C53.9197 54.0217 53.6331 54.7101 53.0599 55.2898Z" fill="#222221"/>
</g>
</g>
<defs>
<clipPath id="clip0_233_2">
<rect width="1920" height="6573" fill="white" transform="translate(-1308 -1729)"/>
</clipPath>
<clipPath id="clip1_233_2">
<rect width="68" height="65" fill="white"/>
</clipPath>
</defs>
</svg>
