<svg width="82" height="83" viewBox="0 0 82 83" fill="none" xmlns="http://www.w3.org/2000/svg">
<path d="M69.67 5.13995H12.22V55.17H69.67V5.13995ZM66.67 52.17H15.22V8.13995H66.67V52.17Z" fill="black"/>
<path d="M20.75 20.5V23.9H23.75V20.5C25.94 19.85 27.55 17.84 27.55 15.44C27.55 12.52 25.17 10.14 22.25 10.14C19.33 10.14 16.95 12.52 16.95 15.44C16.95 17.84 18.56 19.85 20.75 20.5ZM22.25 13.14C23.52 13.14 24.55 14.17 24.55 15.44C24.55 16.71 23.52 17.74 22.25 17.74C20.98 17.74 19.95 16.71 19.95 15.44C19.95 14.17 20.98 13.14 22.25 13.14Z" fill="black"/>
<path d="M60.42 46.59L40.5 14.49L20.58 46.59H60.42ZM55.03 43.59H25.99L40.51 20.18L55.03 43.59Z" fill="black"/>
<path d="M52.94 65.84V77.53H81.5V74.53H55.94V65.84H65.59V59.83H74.47V0.469971H7.43V59.84H16.31V65.85H26.07V74.54H0.5V77.54H29.06V65.85V64.35V59.84H30.8V64.35V65.85V79.27H0.5V82.27H33.8V65.85H37.13V81.97H40.13V65.85V64.35V59.84H41.87V64.35V65.85V81.97H44.87V65.85H48.21V82.27H81.51V79.27H51.2V65.85V64.35V59.84H52.94V64.35V65.84ZM26.06 62.84H19.3V59.83H26.06V62.84ZM37.13 62.84H33.8V59.83H37.13V62.84ZM48.2 62.84H44.86V59.83H48.2V62.84ZM51.2 56.84H41.86H40.12H30.8H29.06H16.31H10.43V3.46997H71.47V56.84H65.59H52.94H51.2ZM62.59 59.84V62.85H55.94V59.84H62.59Z" fill="black"/>
<path d="M40.32 36.1699L37.09 39.3899L39.2 41.5099L47.59 33.1699H40.61L43.78 29.8999L41.63 27.8099L33.51 36.1699H40.32Z" fill="black"/>
</svg>
