<svg width="20" height="32" viewBox="0 0 20 32" fill="none" xmlns="http://www.w3.org/2000/svg">
<path d="M12.1604 32H7.0259C6.16827 32 5.47062 31.3024 5.47062 30.4447V18.8635H2.47502C1.61739 18.8635 0.919739 18.1656 0.919739 17.3082V12.3456C0.919739 11.488 1.61739 10.7904 2.47502 10.7904H5.47062V8.30528C5.47062 5.84124 6.24435 3.74486 7.7079 2.24315C9.17806 0.734589 11.2326 -0.0626221 13.6494 -0.0626221L17.5653 -0.056262C18.4215 -0.0547943 19.1179 0.642857 19.1179 1.49902V6.10665C19.1179 6.96429 18.4205 7.66194 17.5631 7.66194L14.9266 7.66292C14.1225 7.66292 13.9178 7.82412 13.874 7.87353C13.8018 7.95548 13.716 8.18713 13.716 8.82681V10.7901H17.3649C17.6397 10.7901 17.9058 10.8579 18.1345 10.9856C18.6279 11.2613 18.9347 11.7825 18.9347 12.3459L18.9327 17.3085C18.9327 18.1656 18.2351 18.8633 17.3774 18.8633H13.716V30.4447C13.716 31.3024 13.0181 32 12.1604 32ZM7.35027 30.1204H11.8361V18.022C11.8361 17.4494 12.3021 16.9836 12.8745 16.9836H17.0531L17.0548 12.67H12.8742C12.3018 12.67 11.8361 12.2043 11.8361 11.6316V8.82681C11.8361 8.09247 11.9107 7.25734 12.465 6.62965C13.1348 5.87084 14.1903 5.78327 14.9261 5.78327L17.2382 5.78229V1.8229L13.648 1.81703C9.76392 1.81703 7.35027 4.30333 7.35027 8.30528V11.6316C7.35027 12.204 6.88451 12.67 6.31211 12.67H2.79939V16.9836H6.31211C6.88451 16.9836 7.35027 17.4494 7.35027 18.022V30.1204ZM17.5616 1.82339H17.5619H17.5616Z" fill="#ECFF00"/>
</svg>
