<svg width="144" height="107" viewBox="0 0 144 107" fill="none" xmlns="http://www.w3.org/2000/svg">
<path d="M116.21 40.1C123.59 40.1 129.6 34.09 129.6 26.71C129.6 19.33 123.59 13.32 116.21 13.32C108.83 13.32 102.82 19.33 102.82 26.71C102.82 34.09 108.83 40.1 116.21 40.1ZM116.21 16.32C121.94 16.32 126.6 20.98 126.6 26.71C126.6 32.44 121.94 37.1 116.21 37.1C110.48 37.1 105.82 32.44 105.82 26.71C105.82 20.98 110.48 16.32 116.21 16.32Z" fill="#222221"/>
<path d="M91.4225 16.4428L90.4322 19.2748L100.618 22.8366L101.608 20.0046L91.4225 16.4428Z" fill="#222221"/>
<path d="M107.109 4.36058L104.404 5.65778L107.893 12.9345L110.598 11.6373L107.109 4.36058Z" fill="#222221"/>
<path d="M123.643 0.922271L120.082 11.108L122.914 12.0983L126.475 1.91257L123.643 0.922271Z" fill="#222221"/>
<path d="M137.273 14.8972L130.011 18.3944L131.313 21.0974L138.575 17.6002L137.273 14.8972Z" fill="#222221"/>
<path d="M131.82 30.571L130.83 33.403L141.015 36.9648L142.006 34.1328L131.82 30.571Z" fill="#222221"/>
<path d="M124.52 40.5026L121.817 41.8046L125.316 49.0659L128.018 47.7639L124.52 40.5026Z" fill="#222221"/>
<path d="M109.524 41.3153L105.963 51.5011L108.795 52.4911L112.356 42.3053L109.524 41.3153Z" fill="#222221"/>
<path d="M101.143 32.3207L93.8658 35.8094L95.1627 38.5145L102.439 35.0258L101.143 32.3207Z" fill="#222221"/>
<path d="M139.43 91.48L143.06 84.29L107.8 66.48L104.17 73.67L120.67 82V103.26H95.02V84.14L110.5 91.96L114.13 84.77L78.87 66.97L75.24 74.16L92.02 82.63V103.26H61.58V74.03H73.1L61.57 62.59V42.57H51.32V52.43L36.94 38.18L0.76 74.03H12.45V103.27H0.5V106.27H135.53V103.27H123.66V83.52L139.43 91.48ZM80.2 71L110.11 86.1L109.18 87.93L79.27 72.83L80.2 71ZM43.24 103.26H30.72V86.47H43.25V103.26H43.24ZM54.32 55.4V45.57H58.57V59.61L54.99 56.06L54.32 55.4ZM8.05 71.03L36.94 42.4L54.84 60.14L61.57 66.81L65.82 71.02H58.59V103.26H46.24V83.47H27.72V103.26H15.45V71.03H8.05ZM109.12 70.51L139.03 85.61L138.1 87.44L108.2 72.33L109.12 70.51Z" fill="#222221"/>
</svg>
