<svg width="30" height="30" viewBox="0 0 30 30" fill="none" xmlns="http://www.w3.org/2000/svg">
<path d="M22.9688 30H7.03125C3.15391 30 0 26.8453 0 22.9688V7.03125C0 3.15469 3.15391 0 7.03125 0H22.9688C26.8453 0 30 3.15469 30 7.03125V22.9688C30 26.8461 26.8453 30 22.9688 30ZM7.03125 2.34375C4.44609 2.34375 2.34375 4.44609 2.34375 7.03125V22.9688C2.34375 25.5539 4.44609 27.6562 7.03125 27.6562H22.9688C25.5539 27.6562 27.6562 25.5539 27.6562 22.9688V7.03125C27.6562 4.44609 25.5539 2.34375 22.9688 2.34375H7.03125ZM23.2617 5.27344C22.4523 5.27344 21.7969 5.92891 21.7969 6.73828C21.7969 7.54766 22.4523 8.20312 23.2617 8.20312C24.0711 8.20312 24.7266 7.54766 24.7266 6.73828C24.7266 5.92891 24.0711 5.27344 23.2617 5.27344ZM15 22.6172C10.8 22.6172 7.38281 19.2 7.38281 15C7.80156 4.89453 22.2 4.89766 22.6172 15C22.6172 19.2 19.2 22.6172 15 22.6172ZM15 9.72656C12.0922 9.72656 9.72656 12.0922 9.72656 15C10.0164 21.9961 19.9844 21.9937 20.2734 15C20.2734 12.0922 17.9078 9.72656 15 9.72656Z" fill="#ECFF00"/>
</svg>
