<svg width="26" height="32" viewBox="0 0 26 32" fill="none" xmlns="http://www.w3.org/2000/svg">
<path d="M12.9903 6.37646C9.29798 6.37646 6.29962 9.38138 6.29962 13.0671C6.29962 16.7529 9.29798 19.7644 12.9903 19.7644C16.6826 19.7644 19.681 16.7594 19.681 13.0737C19.681 9.38792 16.6826 6.37646 12.9903 6.37646ZM12.9903 18.1604C10.1818 18.1604 7.90355 15.8756 7.90355 13.0737C7.90355 10.2717 10.1883 7.98694 12.9903 7.98694C15.7923 7.98694 18.077 10.2717 18.077 13.0737C18.077 15.8756 15.7988 18.1604 12.9903 18.1604Z" fill="#ECFF00"/>
<path d="M12.9903 0C12.8397 0 12.6826 0 12.532 0.00654664C6.07702 0.229133 0.741505 5.24386 0.12612 11.6661C0.00828046 12.91 0.0672004 14.1604 0.296333 15.3519C0.296333 15.3519 0.315973 15.5025 0.387986 15.784C0.584385 16.6678 0.878985 17.5254 1.25214 18.3241C2.58111 21.473 5.49437 26.3241 11.8184 31.5745C12.1523 31.8494 12.5713 32 13.0034 32C13.4354 32 13.8544 31.8494 14.1883 31.5745C20.5058 26.3306 23.4191 21.473 24.7415 18.3502C25.1212 17.5319 25.4158 16.6678 25.6122 15.7905C25.6515 15.6334 25.6777 15.5025 25.6973 15.3781C25.8544 14.5728 25.933 13.748 25.933 12.9231C25.9199 5.80033 20.1196 0 12.9903 0ZM24.1065 15.1031C24.1065 15.1162 24.0868 15.2275 24.041 15.4304C23.8643 16.2029 23.6089 16.9558 23.2685 17.7021C22.005 20.6874 19.2292 25.3028 13.1605 30.3372C13.1016 30.383 13.0427 30.3961 12.9968 30.3961C12.9575 30.3961 12.8921 30.383 12.8332 30.3372C6.76442 25.2962 3.98209 20.6809 2.71204 17.6759C2.37817 16.9558 2.12285 16.2029 1.94609 15.4239C1.90681 15.2537 1.88717 15.1489 1.88062 15.1162C1.88062 15.1031 1.87407 15.09 1.87407 15.0769C1.67113 14.0098 1.61876 12.91 1.7235 11.8232C2.26687 6.19967 6.93463 1.80687 12.5909 1.61047C19.0132 1.38789 24.316 6.54664 24.316 12.9296C24.316 13.6498 24.244 14.3699 24.1065 15.1031Z" fill="#ECFF00"/>
</svg>
