<svg width="106" height="160" viewBox="0 0 106 160" fill="none" xmlns="http://www.w3.org/2000/svg">
<g clip-path="url(#clip0_233_159)">
<path d="M103.63 2.02002H2.04999V103.6H103.63V2.02002Z" fill="#ECFF00" stroke="white" stroke-width="4.0309" stroke-miterlimit="10"/>
<path d="M89.12 16.53H74.61V31.04H89.12V16.53Z" fill="#222221"/>
<path d="M31.08 16.53H16.57V89.09H31.08V16.53Z" fill="#222221"/>
<path d="M89.12 45.55H74.61V60.0601H89.12V45.55Z" fill="#222221"/>
<path d="M89.12 74.5701H74.61V89.0801H89.12V74.5701Z" fill="#222221"/>
<path d="M60.1 16.53H16.57V31.04H60.1V16.53Z" fill="#222221"/>
<path d="M60.1 45.55H16.57V60.0601H60.1V45.55Z" fill="#222221"/>
<path d="M60.1 74.5701H16.57V89.0801H60.1V74.5701Z" fill="#222221"/>
<path d="M14.81 134.03H4.12001C4.31001 134.9 4.77001 135.6 5.49001 136.1C6.21001 136.61 7.10001 136.86 8.17001 136.86C8.91001 136.86 9.56001 136.75 10.13 136.53C10.7 136.31 11.23 135.97 11.72 135.49L13.9 137.85C12.57 139.37 10.63 140.13 8.07001 140.13C6.48001 140.13 5.07001 139.82 3.84001 139.2C2.62001 138.58 1.67001 137.72 1.01001 136.61C0.34001 135.51 0.0100098 134.26 0.0100098 132.86C0.0100098 131.48 0.34001 130.23 0.99001 129.12C1.65001 128.01 2.55001 127.14 3.69001 126.52C4.84001 125.9 6.12001 125.59 7.54001 125.59C8.92001 125.59 10.17 125.89 11.29 126.48C12.41 127.08 13.29 127.93 13.93 129.04C14.57 130.15 14.89 131.44 14.89 132.91C14.89 132.98 14.86 133.35 14.81 134.03ZM5.22001 129.49C4.59001 130.01 4.20001 130.73 4.06001 131.64H11.02C10.88 130.75 10.5 130.03 9.86001 129.5C9.23001 128.97 8.46001 128.7 7.55001 128.7C6.63001 128.7 5.85001 128.97 5.22001 129.49Z" fill="white"/>
<path d="M20.38 139.22C19.18 138.6 18.24 137.74 17.57 136.63C16.9 135.53 16.56 134.28 16.56 132.88C16.56 131.48 16.9 130.23 17.57 129.13C18.24 128.03 19.18 127.17 20.38 126.54C21.58 125.92 22.93 125.61 24.44 125.61C25.93 125.61 27.23 125.92 28.34 126.54C29.45 127.16 30.26 128.05 30.77 129.2L27.59 130.91C26.85 129.62 25.8 128.97 24.41 128.97C23.34 128.97 22.46 129.32 21.76 130.02C21.06 130.72 20.71 131.67 20.71 132.88C20.71 134.09 21.06 135.04 21.76 135.74C22.46 136.44 23.34 136.79 24.41 136.79C25.81 136.79 26.87 136.14 27.59 134.85L30.77 136.58C30.26 137.7 29.45 138.57 28.34 139.2C27.23 139.83 25.93 140.15 24.44 140.15C22.94 140.15 21.58 139.84 20.38 139.22Z" fill="white"/>
<path d="M33.02 120.46H37.12V139.94H33.02V120.46Z" fill="white"/>
<path d="M54.68 134.03H44C44.19 134.9 44.65 135.6 45.37 136.1C46.09 136.61 46.98 136.86 48.05 136.86C48.79 136.86 49.44 136.75 50.01 136.53C50.58 136.31 51.11 135.97 51.6 135.49L53.78 137.85C52.45 139.37 50.51 140.13 47.95 140.13C46.36 140.13 44.95 139.82 43.72 139.2C42.5 138.58 41.55 137.72 40.89 136.61C40.22 135.51 39.89 134.26 39.89 132.86C39.89 131.48 40.22 130.23 40.87 129.12C41.53 128.01 42.43 127.14 43.57 126.52C44.72 125.9 46 125.59 47.42 125.59C48.8 125.59 50.05 125.89 51.17 126.48C52.29 127.08 53.17 127.93 53.81 129.04C54.45 130.15 54.77 131.44 54.77 132.91C54.76 132.98 54.73 133.35 54.68 134.03ZM45.1 129.49C44.47 130.01 44.08 130.73 43.94 131.64H50.9C50.76 130.75 50.38 130.03 49.74 129.5C49.11 128.97 48.34 128.7 47.43 128.7C46.51 128.7 45.73 128.97 45.1 129.49Z" fill="white"/>
<path d="M60.26 139.22C59.06 138.6 58.12 137.74 57.45 136.63C56.78 135.53 56.44 134.28 56.44 132.88C56.44 131.48 56.78 130.23 57.45 129.13C58.12 128.03 59.06 127.17 60.26 126.54C61.46 125.92 62.81 125.61 64.32 125.61C65.81 125.61 67.11 125.92 68.22 126.54C69.33 127.16 70.14 128.05 70.65 129.2L67.47 130.91C66.73 129.62 65.68 128.97 64.29 128.97C63.22 128.97 62.34 129.32 61.64 130.02C60.94 130.72 60.59 131.67 60.59 132.88C60.59 134.09 60.94 135.04 61.64 135.74C62.34 136.44 63.22 136.79 64.29 136.79C65.69 136.79 66.75 136.14 67.47 134.85L70.65 136.58C70.14 137.7 69.33 138.57 68.22 139.2C67.11 139.83 65.81 140.15 64.32 140.15C62.81 140.15 61.46 139.84 60.26 139.22Z" fill="white"/>
<path d="M82.32 139.26C81.92 139.56 81.42 139.78 80.84 139.93C80.25 140.08 79.64 140.15 78.99 140.15C77.31 140.15 76.01 139.72 75.09 138.86C74.17 138 73.71 136.74 73.71 135.08V129.28H71.53V126.13H73.71V122.69H77.81V126.13H81.33V129.28H77.81V135.03C77.81 135.63 77.96 136.08 78.27 136.41C78.58 136.73 79.01 136.9 79.57 136.9C80.22 136.9 80.77 136.73 81.22 136.38L82.32 139.26Z" fill="white"/>
<path d="M84.84 123.19C84.37 122.75 84.13 122.21 84.13 121.56C84.13 120.91 84.37 120.37 84.84 119.93C85.31 119.49 85.92 119.27 86.68 119.27C87.43 119.27 88.05 119.48 88.52 119.9C88.99 120.32 89.23 120.85 89.23 121.47C89.23 122.15 88.99 122.72 88.52 123.16C88.05 123.6 87.43 123.83 86.68 123.83C85.93 123.85 85.32 123.63 84.84 123.19ZM84.63 125.82H88.73V139.94H84.63V125.82Z" fill="white"/>
<path d="M95.3 139.22C94.1 138.6 93.16 137.74 92.49 136.63C91.82 135.53 91.48 134.28 91.48 132.88C91.48 131.48 91.82 130.23 92.49 129.13C93.16 128.03 94.1 127.17 95.3 126.54C96.5 125.91 97.85 125.61 99.36 125.61C100.85 125.61 102.15 125.92 103.26 126.54C104.37 127.16 105.18 128.05 105.69 129.2L102.51 130.91C101.77 129.62 100.72 128.97 99.33 128.97C98.26 128.97 97.38 129.32 96.68 130.02C95.98 130.72 95.63 131.67 95.63 132.88C95.63 134.09 95.98 135.04 96.68 135.74C97.38 136.44 98.26 136.79 99.33 136.79C100.73 136.79 101.79 136.14 102.51 134.85L105.69 136.58C105.18 137.7 104.37 138.57 103.26 139.2C102.15 139.83 100.85 140.15 99.36 140.15C97.86 140.15 96.5 139.84 95.3 139.22Z" fill="white"/>
<path d="M17.8 156.93V158.94H10.4V149.73H17.63V151.74H12.98V153.29H17.07V155.24H12.98V156.92H17.8V156.93Z" fill="white"/>
<path d="M21.88 149.73H24.49V156.88H28.89V158.95H21.89V149.73H21.88Z" fill="white"/>
<path d="M39.94 156.93V158.94H32.54V149.73H39.77V151.74H35.12V153.29H39.21V155.24H35.12V156.92H39.94V156.93Z" fill="white"/>
<path d="M46 158.52C45.23 158.11 44.63 157.54 44.19 156.82C43.75 156.09 43.53 155.27 43.53 154.35C43.53 153.43 43.75 152.6 44.19 151.88C44.63 151.15 45.23 150.58 46 150.17C46.77 149.76 47.63 149.56 48.6 149.56C49.44 149.56 50.2 149.71 50.88 150.01C51.56 150.31 52.12 150.74 52.57 151.3L50.91 152.8C50.31 152.08 49.59 151.72 48.74 151.72C48.24 151.72 47.79 151.83 47.4 152.05C47.01 152.27 46.71 152.58 46.49 152.98C46.27 153.38 46.17 153.84 46.17 154.36C46.17 154.88 46.28 155.34 46.49 155.74C46.7 156.14 47.01 156.45 47.4 156.67C47.79 156.89 48.24 157 48.74 157C49.59 157 50.31 156.64 50.91 155.92L52.57 157.42C52.12 157.98 51.56 158.41 50.88 158.71C50.2 159.01 49.45 159.16 48.6 159.16C47.63 159.13 46.77 158.93 46 158.52Z" fill="white"/>
<path d="M58.23 151.8H55.4V149.73H63.65V151.8H60.83V158.95H58.22V151.8H58.23Z" fill="white"/>
<path d="M71.29 156.5H69.87V158.95H67.26V149.74H71.47C72.3 149.74 73.03 149.88 73.64 150.15C74.25 150.43 74.73 150.82 75.06 151.34C75.39 151.85 75.56 152.46 75.56 153.15C75.56 153.82 75.4 154.4 75.09 154.89C74.78 155.39 74.33 155.77 73.75 156.05L75.74 158.95H72.95L71.29 156.5ZM72.53 152.14C72.26 151.9 71.85 151.78 71.32 151.78H69.87V154.48H71.32C71.86 154.48 72.26 154.36 72.53 154.13C72.8 153.9 72.94 153.57 72.94 153.14C72.94 152.71 72.8 152.38 72.53 152.14Z" fill="white"/>
<path d="M79.64 149.73H82.25V158.94H79.64V149.73Z" fill="white"/>
<path d="M88.72 158.52C87.95 158.11 87.35 157.54 86.91 156.82C86.47 156.09 86.25 155.27 86.25 154.35C86.25 153.43 86.47 152.6 86.91 151.88C87.35 151.15 87.95 150.58 88.72 150.17C89.49 149.76 90.35 149.56 91.32 149.56C92.16 149.56 92.92 149.71 93.6 150.01C94.28 150.31 94.84 150.74 95.29 151.3L93.63 152.8C93.03 152.08 92.31 151.72 91.46 151.72C90.96 151.72 90.51 151.83 90.12 152.05C89.73 152.27 89.43 152.58 89.21 152.98C88.99 153.38 88.89 153.84 88.89 154.36C88.89 154.88 89 155.34 89.21 155.74C89.42 156.14 89.73 156.45 90.12 156.67C90.51 156.89 90.96 157 91.46 157C92.31 157 93.03 156.64 93.63 155.92L95.29 157.42C94.84 157.98 94.28 158.41 93.6 158.71C92.92 159.01 92.17 159.16 91.32 159.16C90.36 159.13 89.49 158.93 88.72 158.52Z" fill="white"/>
</g>
<defs>
<clipPath id="clip0_233_159">
<rect width="105.69" height="159.13" fill="white"/>
</clipPath>
</defs>
</svg>
