<svg width="32" height="25" viewBox="0 0 32 25" fill="none" xmlns="http://www.w3.org/2000/svg">
<path d="M32 2.8125C32 1.2675 30.7419 0 29.1875 0H2.8125C1.26375 0 0 1.2625 0 2.8125V21.5625C0 23.1075 1.25812 24.375 2.8125 24.375H29.1875C30.7325 24.375 32 23.1169 32 21.5625V2.8125ZM1.875 3.19187L10.905 12.1444L1.875 21.1744V3.19187ZM16.0594 14.6144L3.21 1.875H28.7994L16.0594 14.6144ZM12.2362 13.4644L15.4025 16.6031C15.7688 16.9662 16.3606 16.9656 16.7256 16.6L19.8125 13.5131L28.7994 22.5H3.20062L12.2362 13.4644ZM21.1381 12.1875L30.125 3.20062V21.1744L21.1381 12.1875Z" fill="#ECFF00"/>
</svg>
