<svg width="32" height="32" viewBox="0 0 32 32" fill="none" xmlns="http://www.w3.org/2000/svg">
<path d="M25.3039 19.8234C24.6478 19.1413 23.8565 18.7766 23.0178 18.7766C22.1858 18.7766 21.3877 19.1345 20.7046 19.8167L18.5672 21.9442C18.3914 21.8496 18.2155 21.7618 18.0464 21.674C17.8029 21.5524 17.573 21.4376 17.3768 21.3161C15.3748 20.0463 13.5553 18.3916 11.8103 16.2506C10.9648 15.1835 10.3967 14.2852 9.98409 13.3735C10.5387 12.8669 11.0528 12.3401 11.5533 11.8336C11.7427 11.6445 11.932 11.4486 12.1214 11.2595C13.5418 9.84118 13.5418 8.00412 12.1214 6.5858L10.2749 4.74199C10.0653 4.53262 9.84881 4.31649 9.6459 4.10037C9.24008 3.68163 8.81396 3.24938 8.37432 2.84414C7.71824 2.19492 6.93365 1.85132 6.10848 1.85132C5.2833 1.85132 4.48518 2.19577 3.80881 2.84414L3.79528 2.85765L1.49562 5.17424C0.629864 6.03789 0.136112 7.0915 0.0278927 8.3148C-0.134437 10.2869 0.447243 12.124 0.893649 13.3262C1.98937 16.2776 3.62619 19.013 6.06789 21.9442C9.0304 25.4765 12.5949 28.2658 16.6666 30.2312C18.2223 30.9674 20.2988 31.8386 22.6187 31.9872C22.7608 31.994 22.9096 32.0007 23.0448 32.0007C24.6072 32.0007 25.9194 31.4402 26.9475 30.3258C26.9543 30.3123 26.9678 30.3055 26.9745 30.292C27.3263 29.8665 27.7321 29.4815 28.1582 29.0695C28.449 28.7926 28.7466 28.5022 29.0375 28.1983C29.7071 27.5026 30.0588 26.6922 30.0588 25.8614C30.0588 25.0239 29.7003 24.2202 29.0172 23.5448L25.3039 19.8234ZM27.7253 26.9345C27.7186 26.9345 27.7186 26.9421 27.7253 26.9345C27.4615 27.2181 27.191 27.4748 26.9001 27.7584C26.4605 28.1772 26.0141 28.6162 25.5948 29.1092C24.9116 29.8386 24.1067 30.1831 23.0516 30.1831C22.9501 30.1831 22.8419 30.1831 22.7405 30.1763C20.7316 30.048 18.8649 29.2646 17.4648 28.5959C13.6365 26.7453 10.2749 24.1181 7.48151 20.7884C5.17508 18.0126 3.63296 15.4461 2.61163 12.6905C1.98261 11.0088 1.75264 9.69851 1.8541 8.46254C1.92173 7.67234 2.2261 7.01721 2.78749 6.45663L5.09392 4.15355C5.42534 3.84287 5.77705 3.67403 6.122 3.67403C6.54812 3.67403 6.89307 3.93068 7.10951 4.1468L7.1298 4.16706C7.54239 4.55203 7.93468 4.95051 8.34727 5.37601C8.55694 5.59213 8.77338 5.80826 8.98982 6.03114L10.8363 7.87495C11.5533 8.59087 11.5533 9.25275 10.8363 9.96866C10.6402 10.1645 10.4508 10.3604 10.2546 10.5495C9.68648 11.1303 9.14539 11.6706 8.55694 12.1974C8.54342 12.211 8.52989 12.2177 8.52312 12.2312C7.94144 12.8121 8.04966 13.3794 8.17141 13.7644L8.1917 13.8251C8.67193 14.9868 9.3483 16.0809 10.3764 17.3844L10.3831 17.3912C12.2499 19.6875 14.2182 21.4773 16.3893 22.8483C16.6666 23.024 16.9507 23.1658 17.2213 23.3009C17.4648 23.4224 17.6947 23.5372 17.8909 23.6588C17.9179 23.6723 17.945 23.6926 17.972 23.7061C18.202 23.8209 18.4184 23.8749 18.6416 23.8749C19.203 23.8749 19.5548 23.5237 19.6697 23.4089L21.9829 21.0991C22.2129 20.8695 22.5781 20.5925 23.0042 20.5925C23.4236 20.5925 23.7685 20.8559 23.9782 21.0856L27.7186 24.8205C28.4152 25.5094 28.4152 26.2194 27.7253 26.9345Z" fill="#ECFF00"/>
<path d="M17.2957 7.61148C19.0678 7.90865 20.6775 8.74614 21.9626 10.0294C23.2477 11.3126 24.0797 12.9201 24.384 14.6896C24.4584 15.1353 24.844 15.446 25.2836 15.446C25.3377 15.446 25.3851 15.4393 25.4392 15.4325C25.9397 15.3515 26.2711 14.8787 26.19 14.3789C25.8247 12.2379 24.8102 10.286 23.2613 8.73938C21.7124 7.19274 19.7577 6.17965 17.6136 5.81494C17.113 5.73389 16.6464 6.06484 16.5584 6.55787C16.4705 7.05091 16.7952 7.53043 17.2957 7.61148Z" fill="#ECFF00"/>
<path d="M31.9865 14.1156C31.3845 10.59 29.7207 7.38192 27.164 4.82895C24.6073 2.27597 21.3945 0.61451 17.8639 0.0134123C17.3701 -0.0743885 16.9034 0.263307 16.8155 0.756342C16.7343 1.25613 17.0658 1.72215 17.5663 1.80995C20.7182 2.34351 23.5927 3.83612 25.8789 6.11219C28.165 8.39501 29.653 11.2654 30.1874 14.4127C30.2618 14.8585 30.6473 15.1692 31.0869 15.1692C31.141 15.1692 31.1884 15.1624 31.2425 15.1557C31.7363 15.0822 32.0744 14.6086 31.9865 14.1156Z" fill="#ECFF00"/>
</svg>
